Coordinates
version=1
nRows=14
nColumns=24
inDegrees=yes

Units are S.I. units (second, meters, Newtons, ...)
Angles are in degrees.

endheader
time	pelvis_tilt	pelvis_list	pelvis_rotation	pelvis_tx	pelvis_ty	pelvis_tz	hip_flexion_r	hip_adduction_r	hip_rotation_r	knee_angle_r	ankle_angle_r	subtalar_angle_r	mtp_angle_r	hip_flexion_l	hip_adduction_l	hip_rotation_l	knee_angle_l	ankle_angle_l	subtalar_angle_l	mtp_angle_l	lumbar_extension	lumbar_bending	lumbar_rotation
      1.71650000	     -2.93228761	      2.97743223	     -6.59161539	      1.31828762	      0.99724908	      0.33844246	     22.60463215	     -6.62089550	     -1.11839776	    -77.82212585	     -2.99528936	     -1.42602414	      4.91734819	     20.97137050	      2.50443190	     -8.77165867	    -22.51037594	      4.03968254	    -11.65952247	    -12.70818591	     -6.25816937	     -7.02898695	      5.28483242
      1.72066667	     -2.78551523	      2.77198398	     -6.22027278	      1.32316108	      0.99888032	      0.33733887	     23.07195216	     -6.46147267	     -1.53553349	    -77.71949112	     -2.62561511	     -1.29454955	      4.91403569	     20.30574432	      2.53160057	     -8.40227378	    -22.11608317	      4.17146768	    -11.50159545	    -12.68692950	     -6.51271536	     -6.71067438	      4.85860242
      1.72483333	     -2.65571450	      2.59666438	     -5.85611544	      1.32798869	      1.00044801	      0.33626472	     23.56648367	     -6.33328966	     -1.94850088	    -77.59559508	     -2.25703040	     -1.31229778	      4.90149322	     19.65132996	      2.58166835	     -8.03409058	    -21.68570773	      4.17060654	    -11.43849260	    -12.66152661	     -6.75328858	     -6.42594322	      4.49233755
      1.72900000	     -2.59377234	      2.47896780	     -5.60961012	      1.33273755	      1.00179109	      0.33554921	     24.18484898	     -6.19126029	     -2.22311315	    -77.49031119	     -1.83832276	     -1.35179233	      4.89808801	     19.08074373	      2.60973734	     -7.84757605	    -21.27559499	      4.20299462	    -11.27693381	    -12.65000889	     -6.89343481	     -6.23324870	      4.37792056
      1.73316667	     -2.39536837	      2.25727767	     -5.20937946	      1.33756959	      1.00347119	      0.33436835	     24.55089656	     -6.06631524	     -2.70487293	    -77.23476888	     -1.50762626	     -1.27073544	      4.87392563	     18.34567427	      2.62319629	     -7.41965799	    -20.83957739	      4.30054058	    -11.19530354	    -12.61760493	     -7.20965644	     -5.88527559	      3.90695130
      1.73733333	     -2.25153609	      2.07193865	     -4.88043872	      1.34231196	      1.00498903	      0.33342036	     25.00594140	     -5.92564755	     -3.10038423	    -76.97719248	     -1.16924431	     -1.32635190	      4.84252786	     17.67464365	      2.62578866	     -7.07655060	    -20.40102213	      4.32038079	    -11.14051654	    -12.58578290	     -7.46156147	     -5.60565752	      3.61575502
      1.74150000	     -2.10283608	      1.90434049	     -4.55782266	      1.34704427	      1.00647527	      0.33245277	     25.44986608	     -5.81996823	     -3.49625346	    -76.68259807	     -0.84168627	     -1.34882664	      4.80180942	     16.99405185	      2.64082390	     -6.75467491	    -19.94886764	      4.33746345	    -11.09051487	    -12.54989811	     -7.70270635	     -5.31406489	      3.32826049
      1.74566667	     -1.97099203	      1.73839981	     -4.28158852	      1.35177324	      1.00791401	      0.33162142	     25.90971866	     -5.69156991	     -3.85354090	    -76.34509734	     -0.52129276	     -1.40511441	      4.75541906	     16.32303937	      2.63045347	     -6.47992201	    -19.48347829	      4.36235697	    -11.03527550	    -12.51433322	     -7.91581055	     -5.04354334	      3.09818188
      1.74983333	     -1.81196490	      1.58124459	     -4.00544165	      1.35646816	      1.00936263	      0.33082467	     26.33088119	     -5.57382468	     -4.20254870	    -75.97038795	     -0.20490575	     -1.45410628	      4.70121066	     15.61651453	      2.62614821	     -6.19089760	    -18.99305896	      4.36614056	    -11.00026592	    -12.47720311	     -8.17409812	     -4.79821624	      2.86431840
      1.75400000	     -1.67789836	      1.40239330	     -3.72332686	      1.36115988	      1.01074005	      0.32999901	     26.75696421	     -5.44515324	     -4.57702450	    -75.54122200	      0.09494114	     -1.53064781	      4.63744000	     14.94990477	      2.59064776	     -5.91147351	    -18.53695586	      4.38906908	    -10.95770006	    -12.43902737	     -8.38667757	     -4.49862159	      2.65120294
      1.75816667	     -1.65033973	      1.31317862	     -3.55790833	      1.36578690	      1.01181025	      0.32952151	     27.35445315	     -5.32945133	     -4.79885206	    -75.14578866	      0.42775683	     -1.64311094	      4.61356171	     14.40036473	      2.58970793	     -5.78408829	    -18.06925409	      4.36777139	    -10.88823672	    -12.42550421	     -8.47167269	     -4.33313027	      2.56464037
      1.76233333	     -1.42158694	      1.08944027	     -3.24533041	      1.37047724	      1.01334462	      0.32859649	     27.61552284	     -5.19750860	     -5.23322613	    -74.57988621	      0.64531255	     -1.68660575	      4.52917991	     13.62085217	      2.52331709	     -5.41727404	    -17.58584288	      4.41572648	    -10.91343076	    -12.38227041	     -8.80320124	     -3.98567195	      2.25478304
      1.76650000	     -1.28431499	      0.94852846	     -3.01360224	      1.37509772	      1.01459516	      0.32792133	     28.01932136	     -5.09508482	     -5.55317535	    -74.04499047	      0.92692681	     -1.75786220	      4.43217051	     12.93946662	      2.50132365	     -5.15519580	    -17.08659663	      4.39658659	    -10.94473705	    -12.33767164	     -9.01962026	     -3.74936572	      2.06303516
      1.77066667	     -1.19855639	      0.79677451	     -2.79894427	      1.37970592	      1.01570466	      0.32732647	     28.46761756	     -4.96678786	     -5.86050078	    -73.47071126	      1.19309700	     -1.83514017	      4.33807857	     12.33716738	      2.44411650	     -4.94760637	    -16.63742441	      4.42607530	    -10.91655380	    -12.29655005	     -9.16864195	     -3.49736513	      1.92116294
